<?xml version="1.0" standalone="no"?>
<!DOCTYPE svg PUBLIC "-//W3C//DTD SVG 20010904//EN"
 "http://www.w3.org/TR/2001/REC-SVG-20010904/DTD/svg10.dtd">
<svg version="1.0" xmlns="http://www.w3.org/2000/svg"
 width="318.000000pt" height="318.000000pt" viewBox="0 0 318.000000 318.000000"
 preserveAspectRatio="xMidYMid meet">
<metadata>
Created by potrace 1.11, written by Peter Selinger 2001-2013
</metadata>
<g transform="translate(0.000000,318.000000) scale(0.100000,-0.100000)"
fill="#000000" stroke="none">
<path d="M1438 3125 c-1 -1 -25 -6 -53 -10 -27 -3 -68 -10 -90 -15 -22 -5 -52
-11 -67 -14 -55 -10 -214 -68 -299 -111 -153 -76 -273 -161 -385 -270 -35 -35
-66 -60 -70 -56 -4 3 -4 1 -1 -5 4 -6 -5 -21 -18 -34 -13 -12 -36 -40 -51 -61
-14 -21 -30 -37 -34 -34 -3 2 -7 -1 -7 -8 0 -7 -20 -43 -45 -82 -47 -75 -104
-188 -134 -270 -10 -27 -20 -52 -23 -55 -4 -3 -6 -9 -6 -15 0 -5 -11 -52 -23
-103 -12 -52 -22 -102 -22 -112 0 -10 -6 -21 -12 -23 -10 -4 -10 -6 -1 -6 9
-1 10 -8 4 -25 -11 -27 -8 -383 3 -408 4 -9 5 -21 2 -27 -4 -5 -2 -12 2 -15 5
-3 8 -19 7 -35 -1 -17 2 -28 7 -25 4 3 8 -6 8 -20 0 -34 -3 -42 -15 -38 -5 2
-6 0 -2 -5 5 -4 13 -8 19 -8 6 0 13 -8 15 -18 7 -35 13 -55 49 -141 13 -32 21
-62 18 -67 -3 -5 0 -9 5 -9 6 0 11 -7 11 -15 0 -8 5 -15 10 -15 6 0 10 -9 10
-20 0 -11 5 -20 10 -20 6 0 10 -7 10 -15 0 -9 9 -25 20 -37 22 -24 27 -43 8
-32 -7 4 2 -6 19 -23 30 -28 38 -43 34 -66 0 -4 5 -6 11 -5 7 2 12 -5 12 -14
-1 -10 2 -16 6 -13 11 6 100 -103 96 -118 -1 -7 -1 -8 2 -4 2 4 10 3 18 -4 8
-6 11 -16 7 -22 -3 -6 -1 -7 6 -3 6 4 14 0 17 -8 3 -9 13 -16 21 -16 8 0 11
-4 8 -10 -3 -5 1 -10 10 -10 9 0 13 -4 10 -10 -3 -5 1 -10 9 -10 8 0 21 -8 28
-18 7 -11 23 -24 36 -31 13 -7 20 -17 16 -23 -5 -7 -2 -9 9 -5 9 3 18 0 21 -9
3 -8 12 -14 21 -14 18 0 20 -17 3 -22 -9 -3 -9 -6 0 -12 7 -4 12 -2 12 3 0 6
7 11 15 11 8 0 15 -3 15 -8 0 -4 16 -16 35 -26 19 -10 32 -22 30 -26 -3 -4 3
-7 13 -6 11 1 16 -5 15 -19 -1 -11 0 -14 3 -7 8 18 27 15 20 -4 -5 -13 -3 -14
6 -7 15 12 62 -2 54 -16 -3 -5 4 -9 17 -9 12 0 45 -10 72 -23 28 -13 55 -24
60 -24 6 -1 21 -6 35 -12 14 -6 49 -16 78 -24 28 -7 52 -18 52 -23 0 -6 5 -4
10 4 5 8 10 10 10 4 0 -6 15 -12 33 -13 32 -2 52 -4 137 -16 25 -4 80 -7 123
-8 46 -1 77 -5 77 -12 0 -6 3 -6 8 1 4 6 26 13 49 16 38 5 41 4 38 -14 -3 -12
-1 -17 3 -14 4 4 7 13 7 19 0 7 7 12 15 12 8 0 18 5 22 10 5 6 8 5 8 -3 0 -8
5 -10 13 -5 6 4 20 9 31 10 16 3 17 1 5 -14 -12 -16 -12 -17 2 -6 9 7 19 10
23 6 4 -4 4 1 0 12 -7 18 -6 19 11 5 11 -9 16 -10 11 -2 -7 11 16 17 52 13 6
-1 12 2 12 8 0 5 8 8 18 6 9 -1 23 2 30 8 6 5 12 6 12 2 0 -4 6 -3 13 3 23 19
84 31 97 18 8 -8 10 -7 5 4 -4 11 5 19 30 29 19 7 40 9 46 5 7 -4 9 -3 6 3 -4
6 5 15 19 22 33 14 39 14 25 -2 -8 -10 -7 -14 3 -14 7 0 13 7 12 16 -1 9 3 17
8 18 5 1 13 7 17 15 8 11 10 11 18 0 6 -10 10 -8 14 8 3 12 10 19 15 16 6 -3
13 1 16 10 4 11 13 14 27 11 12 -3 18 -3 15 0 -6 6 9 22 44 46 28 20 44 22 34
5 -4 -7 -3 -8 4 -4 6 4 9 13 6 20 -5 13 30 33 49 28 4 -1 6 2 5 7 -5 16 61 71
77 65 8 -3 15 -1 15 6 0 6 -4 8 -10 5 -5 -3 -10 -1 -10 4 0 10 14 15 33 12 5
-1 6 2 3 7 -6 9 42 60 51 54 2 -2 8 0 11 4 4 4 1 4 -5 0 -18 -10 -16 0 4 24
10 11 23 20 30 20 7 0 12 5 11 11 -2 6 5 13 15 14 11 2 22 7 25 11 4 4 -1 4
-10 1 -20 -7 -23 -2 -8 16 32 36 94 125 101 145 5 13 13 20 19 17 6 -4 7 1 3
11 -5 13 -3 15 7 9 9 -6 11 -4 6 4 -5 7 0 21 10 32 9 10 13 19 9 19 -4 0 -1 8
7 18 9 9 18 26 20 37 2 11 9 19 16 18 6 -2 9 3 6 10 -3 8 9 49 26 93 16 43 30
86 30 95 0 8 3 19 7 23 4 3 8 12 9 19 1 7 9 51 18 99 9 47 19 103 21 125 8 75
6 269 -3 321 -6 37 -6 52 2 52 7 0 8 3 1 8 -9 6 -18 37 -41 149 -2 12 -8 33
-13 45 -5 13 -9 25 -9 28 0 3 -6 19 -12 35 -7 17 -13 40 -13 52 -1 11 -5 19
-9 16 -5 -2 -8 2 -8 9 0 12 -89 197 -100 208 -6 6 -84 122 -88 132 -6 13 -89
104 -157 172 -208 208 -513 361 -820 411 -42 7 -371 16 -377 10z"/>
<path d="M3026 1138 c3 -5 10 -6 15 -3 13 9 11 12 -6 12 -8 0 -12 -4 -9 -9z"/>
<path d="M430 639 c0 -5 5 -7 10 -4 6 3 10 8 10 11 0 2 -4 4 -10 4 -5 0 -10
-5 -10 -11z"/>
<path d="M777 349 c7 -7 15 -10 18 -7 3 3 -2 9 -12 12 -14 6 -15 5 -6 -5z"/>
<path d="M987 239 c7 -7 15 -10 18 -7 3 3 -2 9 -12 12 -14 6 -15 5 -6 -5z"/>
<path d="M1011 207 c2 -2 11 -8 20 -15 12 -9 16 -9 16 1 0 7 -9 14 -20 14 -11
1 -18 1 -16 0z"/>
<path d="M2049 183 c-13 -16 -12 -17 4 -4 16 13 21 21 13 21 -2 0 -10 -8 -17
-17z"/>
<path d="M1113 175 c0 -8 4 -12 9 -9 5 3 6 10 3 15 -9 13 -12 11 -12 -6z"/>
<path d="M1190 160 c0 -5 5 -10 11 -10 5 0 7 5 4 10 -3 6 -8 10 -11 10 -2 0
-4 -4 -4 -10z"/>
<path d="M1995 160 c-3 -6 1 -7 9 -4 18 7 21 14 7 14 -6 0 -13 -4 -16 -10z"/>
<path d="M1335 120 c3 -5 8 -10 11 -10 2 0 4 5 4 10 0 6 -5 10 -11 10 -5 0 -7
-4 -4 -10z"/>
<path d="M1895 120 c3 -5 8 -10 11 -10 2 0 4 5 4 10 0 6 -5 10 -11 10 -5 0 -7
-4 -4 -10z"/>
<path d="M1470 116 c0 -2 8 -10 18 -17 15 -13 16 -12 3 4 -13 16 -21 21 -21
13z"/>
<path d="M1533 105 c0 -8 4 -12 9 -9 5 3 6 10 3 15 -9 13 -12 11 -12 -6z"/>
<path d="M1576 107 c3 -10 9 -15 12 -12 3 3 0 11 -7 18 -10 9 -11 8 -5 -6z"/>
</g>
</svg>
